<svg width="147" height="36" viewBox="0 0 147 36" fill="none" xmlns="http://www.w3.org/2000/svg">
<rect width="147" height="36" rx="10" fill="black"/>
<path d="M40.6613 25.7456H34.8233L33.8573 28.5386H30.7703L36.0413 13.8596H39.4643L44.7353 28.5386H41.6273L40.6613 25.7456ZM39.8633 23.3936L37.7423 17.2616L35.6213 23.3936H39.8633ZM45.9495 22.6796C45.9495 21.5036 46.1805 20.4606 46.6425 19.5506C47.1185 18.6406 47.7625 17.9406 48.5745 17.4506C49.3865 16.9606 50.2895 16.7156 51.2835 16.7156C52.0395 16.7156 52.7605 16.8836 53.4465 17.2196C54.1325 17.5416 54.6785 17.9756 55.0845 18.5216V12.9986H58.0665V28.5386H55.0845V26.8166C54.7205 27.3906 54.2095 27.8526 53.5515 28.2026C52.8935 28.5526 52.1305 28.7276 51.2625 28.7276C50.2825 28.7276 49.3865 28.4756 48.5745 27.9716C47.7625 27.4676 47.1185 26.7606 46.6425 25.8506C46.1805 24.9266 45.9495 23.8696 45.9495 22.6796ZM55.1055 22.7216C55.1055 22.0076 54.9655 21.3986 54.6855 20.8946C54.4055 20.3766 54.0275 19.9846 53.5515 19.7186C53.0755 19.4386 52.5645 19.2986 52.0185 19.2986C51.4725 19.2986 50.9685 19.4316 50.5065 19.6976C50.0445 19.9636 49.6665 20.3556 49.3725 20.8736C49.0925 21.3776 48.9525 21.9796 48.9525 22.6796C48.9525 23.3796 49.0925 23.9956 49.3725 24.5276C49.6665 25.0456 50.0445 25.4446 50.5065 25.7246C50.9825 26.0046 51.4865 26.1446 52.0185 26.1446C52.5645 26.1446 53.0755 26.0116 53.5515 25.7456C54.0275 25.4656 54.4055 25.0736 54.6855 24.5696C54.9655 24.0516 55.1055 23.4356 55.1055 22.7216ZM60.1819 22.6796C60.1819 21.5036 60.4129 20.4606 60.8749 19.5506C61.3509 18.6406 61.9949 17.9406 62.8069 17.4506C63.6189 16.9606 64.5219 16.7156 65.5159 16.7156C66.2719 16.7156 66.9929 16.8836 67.6789 17.2196C68.3649 17.5416 68.9109 17.9756 69.3169 18.5216V12.9986H72.2989V28.5386H69.3169V26.8166C68.9529 27.3906 68.4419 27.8526 67.7839 28.2026C67.1259 28.5526 66.3629 28.7276 65.4949 28.7276C64.5149 28.7276 63.6189 28.4756 62.8069 27.9716C61.9949 27.4676 61.3509 26.7606 60.8749 25.8506C60.4129 24.9266 60.1819 23.8696 60.1819 22.6796ZM69.3379 22.7216C69.3379 22.0076 69.1979 21.3986 68.9179 20.8946C68.6379 20.3766 68.2599 19.9846 67.7839 19.7186C67.3079 19.4386 66.7969 19.2986 66.2509 19.2986C65.7049 19.2986 65.2009 19.4316 64.7389 19.6976C64.2769 19.9636 63.8989 20.3556 63.6049 20.8736C63.3249 21.3776 63.1849 21.9796 63.1849 22.6796C63.1849 23.3796 63.3249 23.9956 63.6049 24.5276C63.8989 25.0456 64.2769 25.4446 64.7389 25.7246C65.2149 26.0046 65.7189 26.1446 66.2509 26.1446C66.7969 26.1446 67.3079 26.0116 67.7839 25.7456C68.2599 25.4656 68.6379 25.0736 68.9179 24.5696C69.1979 24.0516 69.3379 23.4356 69.3379 22.7216Z" fill="white"/>
<ellipse cx="120.21" cy="18.0001" rx="21.2944" ry="14.3077" fill="white"/>
<path d="M120.554 12V22.6154" stroke="black" stroke-width="3" stroke-linecap="round"/>
<path d="M112.654 17.3076H128.453" stroke="black" stroke-width="3" stroke-linecap="round"/>
</svg>
